<?xml version="1.0" encoding="utf-8"?>
<!-- Generator: Adobe Illustrator 24.3.0, SVG Export Plug-In . SVG Version: 6.00 Build 0)  -->
<svg version="1.1" id="Шар_1" xmlns="http://www.w3.org/2000/svg" xmlns:xlink="http://www.w3.org/1999/xlink" x="0px" y="0px"
	 viewBox="0 0 30 30" style="enable-background:new 0 0 30 30;" xml:space="preserve">
<style type="text/css">
	.st0{fill:#FF0606;}
</style>
<g>
	<path class="st0" d="M8.41,7L23,21.59c0.39,0.39,0.39,1.02,0,1.41h0c-0.39,0.39-1.02,0.39-1.41,0L7,8.41C6.61,8.02,6.61,7.39,7,7
		l0,0C7.39,6.61,8.02,6.61,8.41,7z"/>
</g>
<g>
	<path class="st0" d="M23,8.41L8.41,23C8.02,23.39,7.39,23.39,7,23h0c-0.39-0.39-0.39-1.02,0-1.41L21.59,7
		c0.39-0.39,1.02-0.39,1.41,0l0,0C23.39,7.39,23.39,8.02,23,8.41z"/>
</g>
</svg>
