<?xml version="1.0" encoding="utf-8"?>
<!-- Generator: Adobe Illustrator 24.3.0, SVG Export Plug-In . SVG Version: 6.00 Build 0)  -->
<svg version="1.1" id="Шар_1" xmlns="http://www.w3.org/2000/svg" xmlns:xlink="http://www.w3.org/1999/xlink" x="0px" y="0px"
	 viewBox="0 0 30 30" style="enable-background:new 0 0 30 30;" xml:space="preserve">
<style type="text/css">
	.st0{fill:#FF0606;}
</style>
<g>
	<path class="st0" d="M25.5,9.5h-21C3.67,9.5,3,8.83,3,8v0c0-0.83,0.67-1.5,1.5-1.5h21C26.33,6.5,27,7.17,27,8v0
		C27,8.83,26.33,9.5,25.5,9.5z"/>
</g>
<g>
	<path class="st0" d="M25.64,16.58H4.36c-0.83,0-1.5-0.67-1.5-1.5v0c0-0.83,0.67-1.5,1.5-1.5h21.27c0.83,0,1.5,0.67,1.5,1.5v0
		C27.14,15.91,26.46,16.58,25.64,16.58z"/>
</g>
<g>
	<path class="st0" d="M25.5,23.5h-21C3.67,23.5,3,22.83,3,22v0c0-0.83,0.67-1.5,1.5-1.5h21c0.83,0,1.5,0.67,1.5,1.5v0
		C27,22.83,26.33,23.5,25.5,23.5z"/>
</g>
</svg>
